<?xml version="1.0" encoding="UTF-8" standalone="no"?>
<!-- Created with Inkscape (http://www.inkscape.org/) -->

<svg
   xmlns:dc="http://purl.org/dc/elements/1.1/"
   xmlns:cc="http://creativecommons.org/ns#"
   xmlns:rdf="http://www.w3.org/1999/02/22-rdf-syntax-ns#"
   xmlns:svg="http://www.w3.org/2000/svg"
   xmlns="http://www.w3.org/2000/svg"
   xmlns:sodipodi="http://sodipodi.sourceforge.net/DTD/sodipodi-0.dtd"
   xmlns:inkscape="http://www.inkscape.org/namespaces/inkscape"
   width="210mm"
   height="297mm"
   viewBox="0 0 210 297"
   version="1.1"
   id="svg8"
   inkscape:version="0.92.3 (2405546, 2018-03-11)"
   sodipodi:docname="title.svg"
   inkscape:export-filename="/home/lucio/projects/witchcraft/docs/title.png"
   inkscape:export-xdpi="96"
   inkscape:export-ydpi="96">
  <defs
     id="defs2">
    <filter
       inkscape:collect="always"
       style="color-interpolation-filters:sRGB"
       id="filter5084"
       x="-0.0063235353"
       width="1.0126471"
       y="-0.036974322"
       height="1.0739486">
      <feGaussianBlur
         inkscape:collect="always"
         stdDeviation="0.30085871"
         id="feGaussianBlur5086" />
    </filter>
  </defs>
  <sodipodi:namedview
     id="base"
     pagecolor="#ffffff"
     bordercolor="#666666"
     borderopacity="1.0"
     inkscape:pageopacity="0.0"
     inkscape:pageshadow="2"
     inkscape:zoom="1"
     inkscape:cx="147.83491"
     inkscape:cy="904.42262"
     inkscape:document-units="mm"
     inkscape:current-layer="layer1"
     showgrid="false"
     inkscape:window-width="1920"
     inkscape:window-height="1043"
     inkscape:window-x="0"
     inkscape:window-y="0"
     inkscape:window-maximized="1" />
  <metadata
     id="metadata5">
    <rdf:RDF>
      <cc:Work
         rdf:about="">
        <dc:format>image/svg+xml</dc:format>
        <dc:type
           rdf:resource="http://purl.org/dc/dcmitype/StillImage" />
        <dc:title></dc:title>
      </cc:Work>
    </rdf:RDF>
  </metadata>
  <g
     inkscape:label="Layer 1"
     inkscape:groupmode="layer"
     id="layer1">
    <text
       xml:space="preserve"
       style="font-style:normal;font-variant:normal;font-weight:normal;font-stretch:normal;font-size:25.80309868px;line-height:1.25;font-family:'IM FELL English';-inkscape-font-specification:'IM FELL English';font-variant-ligatures:normal;font-variant-position:normal;font-variant-caps:normal;font-variant-numeric:normal;font-variant-alternates:normal;font-feature-settings:normal;text-indent:0;text-align:start;text-decoration:none;text-decoration-line:none;text-decoration-style:solid;text-decoration-color:#000000;letter-spacing:0px;word-spacing:0px;text-transform:none;writing-mode:lr-tb;direction:ltr;text-orientation:mixed;dominant-baseline:auto;baseline-shift:baseline;text-anchor:start;white-space:normal;shape-padding:0;opacity:1;vector-effect:none;fill:#0d0a00;fill-opacity:1;stroke:none;stroke-width:0.64507741;stroke-linecap:butt;stroke-linejoin:miter;stroke-miterlimit:4;stroke-dasharray:none;stroke-dashoffset:0;stroke-opacity:1;filter:url(#filter5084)"
       x="13.554197"
       y="48.343182"
       id="text12-5"
       transform="matrix(1.1683759,0,0,1.1665227,-2.4011583,-4.6115309)"
       inkscape:export-xdpi="96"
       inkscape:export-ydpi="96"><tspan
         sodipodi:role="line"
         id="tspan10-9"
         x="13.554197"
         y="48.343182"
         style="font-style:normal;font-variant:normal;font-weight:normal;font-stretch:normal;font-size:25.80309868px;line-height:1.25;font-family:'IM FELL English';-inkscape-font-specification:'IM FELL English';font-variant-ligatures:normal;font-variant-position:normal;font-variant-caps:normal;font-variant-numeric:normal;font-variant-alternates:normal;font-feature-settings:normal;text-indent:0;text-align:start;text-decoration:none;text-decoration-line:none;text-decoration-style:solid;text-decoration-color:#000000;letter-spacing:0px;word-spacing:0px;text-transform:none;writing-mode:lr-tb;direction:ltr;text-orientation:mixed;dominant-baseline:auto;baseline-shift:baseline;text-anchor:start;white-space:normal;shape-padding:0;vector-effect:none;fill:#0d0a00;fill-opacity:1;stroke:none;stroke-width:0.64507741;stroke-linecap:butt;stroke-linejoin:miter;stroke-miterlimit:4;stroke-dasharray:none;stroke-dashoffset:0;stroke-opacity:1">Witchcraft</tspan></text>
    <text
       xml:space="preserve"
       style="font-style:normal;font-variant:normal;font-weight:normal;font-stretch:normal;font-size:30.15834808px;line-height:1.25;font-family:'IM FELL English';-inkscape-font-specification:'IM FELL English';font-variant-ligatures:normal;font-variant-position:normal;font-variant-caps:normal;font-variant-numeric:normal;font-variant-alternates:normal;font-feature-settings:normal;text-indent:0;text-align:start;text-decoration:none;text-decoration-line:none;text-decoration-style:solid;text-decoration-color:#000000;letter-spacing:0px;word-spacing:0px;text-transform:none;writing-mode:lr-tb;direction:ltr;text-orientation:mixed;dominant-baseline:auto;baseline-shift:baseline;text-anchor:start;white-space:normal;shape-padding:0;opacity:1;vector-effect:none;fill:#c9b320;fill-opacity:1;stroke:none;stroke-width:0.75395864;stroke-linecap:butt;stroke-linejoin:miter;stroke-miterlimit:4;stroke-dasharray:none;stroke-dashoffset:0;stroke-opacity:1"
       x="12.545331"
       y="50.794731"
       id="text12"
       inkscape:export-xdpi="96"
       inkscape:export-ydpi="96"><tspan
         sodipodi:role="line"
         id="tspan10"
         x="12.545331"
         y="50.794731"
         style="font-style:normal;font-variant:normal;font-weight:normal;font-stretch:normal;font-size:30.15834808px;line-height:1.25;font-family:'IM FELL English';-inkscape-font-specification:'IM FELL English';font-variant-ligatures:normal;font-variant-position:normal;font-variant-caps:normal;font-variant-numeric:normal;font-variant-alternates:normal;font-feature-settings:normal;text-indent:0;text-align:start;text-decoration:none;text-decoration-line:none;text-decoration-style:solid;text-decoration-color:#000000;letter-spacing:0px;word-spacing:0px;text-transform:none;writing-mode:lr-tb;direction:ltr;text-orientation:mixed;dominant-baseline:auto;baseline-shift:baseline;text-anchor:start;white-space:normal;shape-padding:0;vector-effect:none;fill:#c9b320;fill-opacity:1;stroke:none;stroke-width:0.75395864;stroke-linecap:butt;stroke-linejoin:miter;stroke-miterlimit:4;stroke-dasharray:none;stroke-dashoffset:0;stroke-opacity:1">Witchcraft</tspan></text>
    <g
       id="g208"
       transform="matrix(0.05116107,0,0,0.05116107,106.69066,17.830464)"
       inkscape:export-xdpi="96"
       inkscape:export-ydpi="96">
      <g
         id="g218">
        <g
           id="g228"
           transform="matrix(0.65419306,0.08897991,-0.09778449,0.81950545,228.16534,284.99382)">
          <polygon
             id="polygon3"
             points="122.437,359.191 114.339,331.851 134.417,311.772 114.339,255.999 154.362,226.316 154.362,226.283 156.359,203.94 312.892,108.757 396.552,192.417 321.816,182.378 321.816,197.995 321.816,213.611 299.507,213.611 313.684,239.401 365.241,333.123 336.038,336.257 333.339,328.873 276.829,334.829 278.893,342.392 "
             style="fill:#6b2b94;fill-opacity:1"
             transform="translate(-198.43984,-238.12781)" />
          <polygon
             id="polygon5"
             points="318.841,169.294 283.89,188.629 299.507,213.611 321.816,213.611 "
             style="fill:#462354;fill-opacity:1"
             transform="translate(-198.43984,-238.12781)" />
          <path
             id="path7"
             d="m 122.33916,145.41419 c -9.359,-0.848 -19.643,-1.539 -31.211004,-1.986 l -10.675,-39.164 -2.064,-7.563002 56.510004,-5.957 2.699,7.384 18.784,51.523002 c -10.262,-1.605 -21.294,-3.066 -34.043,-4.237 z"
             style="fill:#cccccc"
             inkscape:connector-curvature="0" />
          <g
             id="g9"
             transform="translate(-198.43984,-238.12781)">
	<path
   id="path11"
   d="m 365.241,333.123 32.427,58.964 H 379.82 c -8.143,-1.472 -16.286,-2.934 -24.998,-4.295 v -0.011 l -18.784,-51.523 z"
   style="fill:#f7b239"
   inkscape:connector-curvature="0" />

	<path
   id="path13"
   d="m 278.893,342.392 10.675,39.164 c -10.117,-0.402 -21.227,-0.625 -33.564,-0.625 -61.908,0 -92.863,5.577 -123.817,11.155 l -9.749,-32.895 z"
   style="fill:#f7b239"
   inkscape:connector-curvature="0" />

</g>
          <polygon
             id="polygon15"
             points="161.189,331.851 181.267,311.772 161.189,255.999 201.212,226.316 201.212,226.283 203.208,203.94 330.608,126.473 312.892,108.757 156.359,203.94 154.362,226.283 154.362,226.316 114.339,255.999 134.417,311.772 114.339,331.851 122.437,359.191 167.843,354.316 "
             style="fill:#462354;fill-opacity:1"
             transform="translate(-198.43984,-238.12781)" />
          <path
             inkscape:connector-curvature="0"
             id="path17"
             d="m 305.19416,156.74819 c -45.967,0 -74.17,-3.024 -98.702,-6.934 l -91.279,-165.964002 h 8.16 c 4.621,0 8.366,-3.746 8.366,-8.366 v -21.668 l 65.257,8.765 c 3.548,0.483 7.021,-1.365 8.613,-4.581 1.591,-3.216 0.954,-7.089 -1.583,-9.625 l -83.66,-83.659998 c -2.728,-2.728 -6.965,-3.237 -10.262,-1.233 l -156.534004,95.182998 c -2.271,1.381 -3.75,3.758 -3.987,6.405 l -1.659,18.602 -37.011,27.481 c -2.965,2.199 -4.138,6.08 -2.888,9.553 l 18.28,50.777 -16.325,16.325 c -2.168,2.168 -2.977,5.351 -2.106,8.292 l 15.192,51.270002 c -28.365996,5.018 -57.948996,9.378 -113.139996,9.378 -4.621,0 -8.366,3.746 -8.366,8.366 0,4.62 3.745,8.366 8.366,8.366 62.656,0 94.501996,-5.738 125.300996,-11.287 31.458,-5.668 61.1720003,-11.022 122.333,-11.022 61.161004,0 90.875004,5.354 122.333004,11.022 30.798,5.549 62.645,11.287 125.301,11.287 4.621,0 8.366,-3.746 8.366,-8.366 0,-4.62 -3.745,-8.366 -8.366,-8.366 z M -39.517844,60.970188 c 3.267,-3.267 3.267,-8.563 0,-11.831 -3.268,-3.267 -8.566,-3.268 -11.831,0 l -9.271,9.27 -13.507,-37.52 44.643,-33.139 c 3.711,-2.752 4.488,-7.992 1.737,-11.704 -1.604,-2.163 -4.052,-3.321 -6.55,-3.373 l 0.17,-1.906 147.308004,-89.572998 61.511,61.509998 -42.953,-5.77 v -5.324 c 0,-4.62 -3.745,-8.366 -8.366,-8.366 -4.621,0 -8.366,3.746 -8.366,8.366 v 35.509 h -8.997 l -13.233004,-24.06 c -2.224,-4.048 -7.31,-5.525 -11.362,-3.3 -4.049,2.226 -5.525,7.314 -3.298,11.362 L 107.91916,5.3071876 c 10e-4,0.001 0.002,0.002 0.002,0.004 l 45.489,82.7060004 -10.204,1.095 -0.451,-1.235 c -1.316,-3.607 -4.93,-5.863 -8.736,-5.454 l -56.510004,5.957 c -2.441,0.257 -4.644,1.572 -6.028,3.597 -1.013,1.48 -1.507,3.232 -1.45,4.991 l -139.992,15.031002 -4.706,-15.882002 z m 168.282004,76.677002 -5.545,-18.773 c -1.308,-4.431 -5.967,-6.964 -10.392,-5.653 -4.432,1.308 -6.963,5.962 -5.653,10.393 l 3.696,12.51 c -4.235,-0.294 -8.654,-0.555 -13.276004,-0.779 l -8.548,-31.352 40.230004,-4.240002 14.455,39.638002 c -4.749,-0.624 -9.713,-1.21 -14.967,-1.744 z m -189.127004,6.756 -4.768,-16.092 139.381,-14.966 5.824,21.362 c -7.048,-0.174 -14.528,-0.269 -22.515,-0.269 -57.67699969,0.001 -89.244,4.864 -117.922,9.965 z m 222.922004,-2.222 -13.447,-36.873 13.038,-1.4 23.251,42.274 c -0.846,-0.152 -1.692,-0.305 -2.539,-0.457 -6.621,-1.191 -13.291,-2.393 -20.303,-3.544 z"
             style="fill:#000000;fill-opacity:1" />
        </g>
      </g>
      <g
         id="g19">
</g>
      <g
         id="g21">
</g>
      <g
         id="g23">
</g>
      <g
         id="g25">
</g>
      <g
         id="g27">
</g>
      <g
         id="g29">
</g>
      <g
         id="g31">
</g>
      <g
         id="g33">
</g>
      <g
         id="g35">
</g>
      <g
         id="g37">
</g>
      <g
         id="g39">
</g>
      <g
         id="g41">
</g>
      <g
         id="g43">
</g>
      <g
         id="g45">
</g>
      <g
         id="g47">
</g>
    </g>
  </g>
</svg>
