<?xml version="1.0" encoding="iso-8859-1"?>
<!-- Generator: Adobe Illustrator 19.0.0, SVG Export Plug-In . SVG Version: 6.00 Build 0)  -->
<svg version="1.1" id="Layer_1" xmlns="http://www.w3.org/2000/svg" xmlns:xlink="http://www.w3.org/1999/xlink" x="0px" y="0px"
	 viewBox="0 0 512 512" style="enable-background:new 0 0 512 512;" xml:space="preserve">
<polygon style="fill:#D64394;" points="321.816,182.378 321.816,197.995 321.816,213.611 299.507,213.611 313.684,239.401 
	365.241,333.123 336.038,336.257 333.339,328.873 276.829,334.829 278.893,342.392 122.437,359.191 114.339,331.851 
	134.417,311.772 114.339,255.999 154.362,226.316 154.362,226.283 156.359,203.94 312.892,108.757 396.552,192.417 "/>
<polygon style="fill:#BC3987;" points="318.841,169.294 283.89,188.629 299.507,213.611 321.816,213.611 "/>
<path style="fill:#CCCCCC;" d="M320.779,383.542c-9.359-0.848-19.643-1.539-31.211-1.986l-10.675-39.164l-2.064-7.563l56.51-5.957
	l2.699,7.384l18.784,51.523C344.56,386.174,333.528,384.713,320.779,383.542z"/>
<g>
	<path style="fill:#F7B239;" d="M365.241,333.123l32.427,58.964H379.82c-8.143-1.472-16.286-2.934-24.998-4.295v-0.011
		l-18.784-51.523L365.241,333.123z"/>
	<path style="fill:#F7B239;" d="M278.893,342.392l10.675,39.164c-10.117-0.402-21.227-0.625-33.564-0.625
		c-61.908,0-92.863,5.577-123.817,11.155l-9.749-32.895L278.893,342.392z"/>
</g>
<polygon style="fill:#BC3987;" points="161.189,331.851 181.267,311.772 161.189,255.999 201.212,226.316 201.212,226.283 
	203.208,203.94 330.608,126.473 312.892,108.757 156.359,203.94 154.362,226.283 154.362,226.316 114.339,255.999 134.417,311.772 
	114.339,331.851 122.437,359.191 167.843,354.316 "/>
<path style="fill:#333333;" d="M503.634,394.876c-45.967,0-74.17-3.024-98.702-6.934l-91.279-165.964h8.16
	c4.621,0,8.366-3.746,8.366-8.366v-21.668l65.257,8.765c3.548,0.483,7.021-1.365,8.613-4.581c1.591-3.216,0.954-7.089-1.583-9.625
	l-83.66-83.66c-2.728-2.728-6.965-3.237-10.262-1.233l-156.534,95.183c-2.271,1.381-3.75,3.758-3.987,6.405l-1.659,18.602
	l-37.011,27.481c-2.965,2.199-4.138,6.08-2.888,9.553l18.28,50.777l-16.325,16.325c-2.168,2.168-2.977,5.351-2.106,8.292
	l15.192,51.27c-28.366,5.018-57.949,9.378-113.14,9.378c-4.621,0-8.366,3.746-8.366,8.366s3.745,8.366,8.366,8.366
	c62.656,0,94.502-5.738,125.301-11.287c31.458-5.668,61.172-11.022,122.333-11.022s90.875,5.354,122.333,11.022
	c30.798,5.549,62.645,11.287,125.301,11.287c4.621,0,8.366-3.746,8.366-8.366S508.255,394.876,503.634,394.876z M158.922,299.098
	c3.267-3.267,3.267-8.563,0-11.831c-3.268-3.267-8.566-3.268-11.831,0l-9.271,9.27l-13.507-37.52l44.643-33.139
	c3.711-2.752,4.488-7.992,1.737-11.704c-1.604-2.163-4.052-3.321-6.55-3.373l0.17-1.906l147.308-89.573l61.511,61.51l-42.953-5.77
	v-5.324c0-4.62-3.745-8.366-8.366-8.366s-8.366,3.746-8.366,8.366v35.509h-8.997l-13.233-24.06c-2.224-4.048-7.31-5.525-11.362-3.3
	c-4.049,2.226-5.525,7.314-3.298,11.362l29.802,54.186c0.001,0.001,0.002,0.002,0.002,0.004l45.489,82.706l-10.204,1.095
	l-0.451-1.235c-1.316-3.607-4.93-5.863-8.736-5.454l-56.51,5.957c-2.441,0.257-4.644,1.572-6.028,3.597
	c-1.013,1.48-1.507,3.232-1.45,4.991l-139.992,15.031l-4.706-15.882L158.922,299.098z M327.204,375.775l-5.545-18.773
	c-1.308-4.431-5.967-6.964-10.392-5.653c-4.432,1.308-6.963,5.962-5.653,10.393l3.696,12.51c-4.235-0.294-8.654-0.555-13.276-0.779
	l-8.548-31.352l40.23-4.24l14.455,39.638C337.422,376.895,332.458,376.309,327.204,375.775z M138.077,382.531l-4.768-16.092
	l139.381-14.966l5.824,21.362c-7.048-0.174-14.528-0.269-22.515-0.269C198.322,372.567,166.755,377.43,138.077,382.531z
	 M360.999,380.309l-13.447-36.873l13.038-1.4l23.251,42.274c-0.846-0.152-1.692-0.305-2.539-0.457
	C374.681,382.662,368.011,381.46,360.999,380.309z"/>
<g>
</g>
<g>
</g>
<g>
</g>
<g>
</g>
<g>
</g>
<g>
</g>
<g>
</g>
<g>
</g>
<g>
</g>
<g>
</g>
<g>
</g>
<g>
</g>
<g>
</g>
<g>
</g>
<g>
</g>
</svg>
