<?xml version="1.0" encoding="UTF-8" standalone="no"?>
<!-- Generator: Adobe Illustrator 19.0.0, SVG Export Plug-In . SVG Version: 6.00 Build 0)  -->

<svg
   xmlns:dc="http://purl.org/dc/elements/1.1/"
   xmlns:cc="http://creativecommons.org/ns#"
   xmlns:rdf="http://www.w3.org/1999/02/22-rdf-syntax-ns#"
   xmlns:svg="http://www.w3.org/2000/svg"
   xmlns="http://www.w3.org/2000/svg"
   xmlns:sodipodi="http://sodipodi.sourceforge.net/DTD/sodipodi-0.dtd"
   xmlns:inkscape="http://www.inkscape.org/namespaces/inkscape"
   version="1.1"
   id="Layer_1"
   x="0px"
   y="0px"
   viewBox="0 0 512 512"
   style="enable-background:new 0 0 512 512;"
   xml:space="preserve"
   inkscape:version="0.48.4 r9939"
   width="100%"
   height="100%"
   sodipodi:docname="witch-hat.svg"><metadata
   id="metadata53"><rdf:RDF><cc:Work
       rdf:about=""><dc:format>image/svg+xml</dc:format><dc:type
         rdf:resource="http://purl.org/dc/dcmitype/StillImage" /></cc:Work></rdf:RDF></metadata><defs
   id="defs51" /><sodipodi:namedview
   pagecolor="#ffffff"
   bordercolor="#666666"
   borderopacity="1"
   objecttolerance="10"
   gridtolerance="10"
   guidetolerance="10"
   inkscape:pageopacity="0"
   inkscape:pageshadow="2"
   inkscape:window-width="1260"
   inkscape:window-height="817"
   id="namedview49"
   showgrid="false"
   inkscape:zoom="0.4609375"
   inkscape:cx="-82.440678"
   inkscape:cy="256"
   inkscape:window-x="523"
   inkscape:window-y="95"
   inkscape:window-maximized="0"
   inkscape:current-layer="Layer_1" />
<polygon
   style="fill:#6b2b94;fill-opacity:1"
   points="114.339,255.999 154.362,226.316 154.362,226.283 156.359,203.94 312.892,108.757 396.552,192.417 321.816,182.378 321.816,197.995 321.816,213.611 299.507,213.611 313.684,239.401 365.241,333.123 336.038,336.257 333.339,328.873 276.829,334.829 278.893,342.392 122.437,359.191 114.339,331.851 134.417,311.772 "
   id="polygon3" />
<polygon
   style="fill:#462354;fill-opacity:1"
   points="318.841,169.294 283.89,188.629 299.507,213.611 321.816,213.611 "
   id="polygon5" />
<path
   style="fill:#CCCCCC;"
   d="M320.779,383.542c-9.359-0.848-19.643-1.539-31.211-1.986l-10.675-39.164l-2.064-7.563l56.51-5.957  l2.699,7.384l18.784,51.523C344.56,386.174,333.528,384.713,320.779,383.542z"
   id="path7" />
<g
   id="g9">
	<path
   style="fill:#F7B239;"
   d="M365.241,333.123l32.427,58.964H379.82c-8.143-1.472-16.286-2.934-24.998-4.295v-0.011   l-18.784-51.523L365.241,333.123z"
   id="path11" />
	<path
   style="fill:#F7B239;"
   d="M278.893,342.392l10.675,39.164c-10.117-0.402-21.227-0.625-33.564-0.625   c-61.908,0-92.863,5.577-123.817,11.155l-9.749-32.895L278.893,342.392z"
   id="path13" />
</g>
<polygon
   style="fill:#462354;fill-opacity:1"
   points="161.189,331.851 181.267,311.772 161.189,255.999 201.212,226.316 201.212,226.283   203.208,203.94 330.608,126.473 312.892,108.757 156.359,203.94 154.362,226.283 154.362,226.316 114.339,255.999 134.417,311.772   114.339,331.851 122.437,359.191 167.843,354.316 "
   id="polygon15" />
<path
   style="fill:#000000;fill-opacity:1"
   d="m 503.634,394.876 c -45.967,0 -74.17,-3.024 -98.702,-6.934 L 313.653,221.978 h 8.16 c 4.621,0 8.366,-3.746 8.366,-8.366 v -21.668 l 65.257,8.765 c 3.548,0.483 7.021,-1.365 8.613,-4.581 1.591,-3.216 0.954,-7.089 -1.583,-9.625 l -83.66,-83.66 c -2.728,-2.728 -6.965,-3.237 -10.262,-1.233 L 152.01,196.793 c -2.271,1.381 -3.75,3.758 -3.987,6.405 l -1.659,18.602 -37.011,27.481 c -2.965,2.199 -4.138,6.08 -2.888,9.553 l 18.28,50.777 -16.325,16.325 c -2.168,2.168 -2.977,5.351 -2.106,8.292 l 15.192,51.27 c -28.366,5.018 -57.949,9.378 -113.14,9.378 -4.621,0 -8.366,3.746 -8.366,8.366 0,4.62 3.745,8.366 8.366,8.366 62.656,0 94.502,-5.738 125.301,-11.287 31.458,-5.668 61.172,-11.022 122.333,-11.022 61.161,0 90.875,5.354 122.333,11.022 30.798,5.549 62.645,11.287 125.301,11.287 4.621,0 8.366,-3.746 8.366,-8.366 0,-4.62 -3.745,-8.366 -8.366,-8.366 z M 158.922,299.098 c 3.267,-3.267 3.267,-8.563 0,-11.831 -3.268,-3.267 -8.566,-3.268 -11.831,0 l -9.271,9.27 -13.507,-37.52 44.643,-33.139 c 3.711,-2.752 4.488,-7.992 1.737,-11.704 -1.604,-2.163 -4.052,-3.321 -6.55,-3.373 l 0.17,-1.906 147.308,-89.573 61.511,61.51 -42.953,-5.77 v -5.324 c 0,-4.62 -3.745,-8.366 -8.366,-8.366 -4.621,0 -8.366,3.746 -8.366,8.366 v 35.509 h -8.997 l -13.233,-24.06 c -2.224,-4.048 -7.31,-5.525 -11.362,-3.3 -4.049,2.226 -5.525,7.314 -3.298,11.362 l 29.802,54.186 c 0.001,0.001 0.002,0.002 0.002,0.004 l 45.489,82.706 -10.204,1.095 -0.451,-1.235 c -1.316,-3.607 -4.93,-5.863 -8.736,-5.454 l -56.51,5.957 c -2.441,0.257 -4.644,1.572 -6.028,3.597 -1.013,1.48 -1.507,3.232 -1.45,4.991 l -139.992,15.031 -4.706,-15.882 35.149,-35.147 z m 168.282,76.677 -5.545,-18.773 c -1.308,-4.431 -5.967,-6.964 -10.392,-5.653 -4.432,1.308 -6.963,5.962 -5.653,10.393 l 3.696,12.51 c -4.235,-0.294 -8.654,-0.555 -13.276,-0.779 l -8.548,-31.352 40.23,-4.24 14.455,39.638 c -4.749,-0.624 -9.713,-1.21 -14.967,-1.744 z m -189.127,6.756 -4.768,-16.092 139.381,-14.966 5.824,21.362 c -7.048,-0.174 -14.528,-0.269 -22.515,-0.269 -57.677,0.001 -89.244,4.864 -117.922,9.965 z m 222.922,-2.222 -13.447,-36.873 13.038,-1.4 23.251,42.274 c -0.846,-0.152 -1.692,-0.305 -2.539,-0.457 -6.621,-1.191 -13.291,-2.393 -20.303,-3.544 z"
   id="path17"
   inkscape:connector-curvature="0" />
<g
   id="g19">
</g>
<g
   id="g21">
</g>
<g
   id="g23">
</g>
<g
   id="g25">
</g>
<g
   id="g27">
</g>
<g
   id="g29">
</g>
<g
   id="g31">
</g>
<g
   id="g33">
</g>
<g
   id="g35">
</g>
<g
   id="g37">
</g>
<g
   id="g39">
</g>
<g
   id="g41">
</g>
<g
   id="g43">
</g>
<g
   id="g45">
</g>
<g
   id="g47">
</g>
</svg>