<?xml version="1.0" encoding="iso-8859-1"?>
<!-- Generator: Adobe Illustrator 19.0.0, SVG Export Plug-In . SVG Version: 6.00 Build 0)  -->
<svg version="1.1" id="Layer_1" xmlns="http://www.w3.org/2000/svg" xmlns:xlink="http://www.w3.org/1999/xlink" x="0px" y="0px"
	 viewBox="0 0 512 512" style="enable-background:new 0 0 512 512;" xml:space="preserve">
<path style="fill:#333333;" d="M221.687,63.216c3.189,5.427,6.02,11.787,8.359,19.234l28.526-12.481L243.03,49.295L221.687,63.216z"
	/>
<g>
	<path style="fill:#412559;" d="M279.562,95.141c5.046-2.587,46.136-15.675,63.798-52.671l-38.883,20.033
		c-0.034,0.017-75.867,33.204-75.867,33.204c-0.023,0.01-38.924,15.817-38.924,15.817
		C212.555,115.705,274.516,97.727,279.562,95.141z"/>
	<path style="fill:#412559;" d="M198.346,11.568c-21.129,0-39.751,8.843-55.565,26.338c7.776-2.331,17.184-4.255,27.053-4.255
		c14.421,0,31.723,4.178,45.183,20.103l38.871-25.349C237.491,19.156,218.045,11.568,198.346,11.568z"/>
</g>
<path style="fill:#333333;" d="M264.855,167.967c-12.632-21.401-9.012-41.358-4.05-53.963
	c-25.098,7.965-43.441,10.622-56.731,10.622c-0.777,0-1.535-0.009-2.279-0.028c-3.924,3.738-15.256,16.395-18.969,40.757
	c6.852-3.933,16.222-8.073,25.634-8.343c2.256-0.061,4.37,1.205,5.365,3.248c0.995,2.043,0.701,4.479-0.75,6.227
	c-0.407,0.506-9.678,12.283-5.162,30.452c4.158-0.942,10.47-2.471,17.434-4.502C245.561,186.543,263.473,172.94,264.855,167.967z"/>
<g>
	<path style="fill:#E6E6E6;" d="M314.927,98.708l-4.852-5.464c-13.616,8.283-25.029,12.259-26.756,12.837
		c-2.353,0.902-4.657,1.764-6.917,2.589c-3.548,5.469-15.421,26.788-3.063,50.717l36.369-3.387
		c2.351-0.995,10.972-4.964,13.808-10.675c-3.583,0.931-7.92,1.734-12.252,1.734c-7.119,0-14.191-2.171-17.75-9.515
		c-1.394-2.875-0.193-6.335,2.681-7.727c2.875-1.394,6.335-0.192,7.727,2.681c2.206,4.551,11.96,3.066,18.905,0.988
		c-0.312-4.676,1.185-8.181,2.762-10.505c4.036-5.952,11.555-8.776,17.426-10.108c-7.965-13.099-22.66-12.283-23.373-12.234
		C317.847,100.751,316.115,100.044,314.927,98.708z M310.122,114.006c-1.077,1.076-2.569,1.701-4.095,1.701
		c-1.515,0-3.009-0.625-4.084-1.701c-1.076-1.076-1.701-2.568-1.701-4.084c0-1.527,0.625-3.019,1.701-4.095
		c1.076-1.076,2.568-1.689,4.084-1.689c1.526,0,3.018,0.613,4.095,1.689c1.076,1.076,1.689,2.568,1.689,4.095
		C311.811,111.438,311.198,112.93,310.122,114.006z"/>
	<path style="fill:#E6E6E6;" d="M392.747,247.377c0.036-3.631-0.523-6.601-7.752-6.969c-6.445-0.329-11.964-1.263-16.082-2.182
		c-0.345,11.369-2.258,20.506-4.096,26.817C391.443,259.596,392.748,247.511,392.747,247.377z"/>
</g>
<path style="fill:#FFAA2A;" d="M33.238,419.587c-0.821,0.875-1.175,4.089-0.407,9.242c16.022-8.777,56.445-28.987,89.888-29.491
	c3.186-0.095,5.821,2.502,5.87,5.696c0.049,3.194-2.502,5.822-5.696,5.871c-32.557,0.489-74.422,22.441-87.202,29.583
	c1.837,5.651,4.562,12.292,8.479,19.764l83.091-47.299c2.775-1.583,6.308-0.611,7.888,2.166c1.579,2.776,0.61,6.308-2.166,7.888
	l-83.095,47.3c4.424,7.181,8.744,12.913,12.668,17.376c12.669-7.345,52.915-32.132,69.955-59.871
	c1.672-2.722,5.232-3.573,7.957-1.901c2.722,1.672,3.573,5.233,1.902,7.955c-17.497,28.483-55.491,52.916-71.233,62.221
	c4.011,3.254,6.955,4.589,8.18,4.353c4.855-3.187,68.986-45.85,79.65-80.839l-15.511-27.249
	C107.79,383.618,38.095,417.212,33.238,419.587z"/>
<path style="fill:#808080;" d="M269.465,65.206l22.023-9.635c-5.708-5.107-15.05-12.886-26.659-20.489l-12.085,7.883L269.465,65.206
	z"/>
<path style="fill:#754C24;" d="M475.701,214.401l-74.256,42.082c-3.09,5.384-9.504,12.048-22.835,16.759
	c0.929,0.759,1.909,1.526,2.921,2.292l96.646-56.64c1.291-0.736,1.723-2.304,1.024-3.532
	C478.498,214.132,476.929,213.704,475.701,214.401z"/>
<path style="fill:#808080;" d="M447.197,374.72l3.828-10.149c-0.368-0.199-0.743-0.389-1.039-0.541
	c-2.227-1.135-5.275-2.691-5.981-6.226c-0.404-2.029,0.175-4.145,1.589-5.804c2.312-2.714,6.239-3.872,10.394-5.097
	c1.888-0.556,5.026-1.482,5.915-2.141c6.183-6.92,8.995-14.211,8.361-21.674c-0.489-5.759-2.997-11.21-6.19-15.77
	c-1.193,6.492-3.761,14.145-9.157,20.54c-5.695,6.749-13.434,10.89-23.036,12.355l-10.646,28.084
	C423.841,372.098,431.245,379.576,447.197,374.72z"/>
<g>
	<polygon style="fill:#333333;" points="410.993,362.678 420.153,338.515 412.295,335.977 396.081,361.473 	"/>
	
		<rect x="151.032" y="396.725" transform="matrix(0.4947 0.869 -0.869 0.4947 429.3643 59.7173)" style="fill:#333333;" width="24.589" height="4.755"/>
	<path style="fill:#333333;" d="M344.602,278.775c-28.844,0.304-49.41-12.756-62.083-24.25
		c-15.458-14.021-22.606-28.954-22.904-29.583c-1.363-2.889-0.125-6.336,2.764-7.699c2.885-1.362,6.33-0.128,7.695,2.754
		c0.093,0.193,6.676,13.791,20.529,26.24c17.44,15.674,38.085,22.616,61.408,20.659c1.893-5.037,5.417-16.569,5.39-32.512
		c-8.101-3.92-27.987-14.783-35.548-30.108c-6.121-12.822-12.032-28.847-14.729-36.416l-31.067,2.893
		c-0.127,0.479-0.279,0.959-0.466,1.439c-4.405,11.268-26.578,24.807-44.756,30.657c-8.859,15.63-18.362,41.89-16.077,80.777
		c4.038,68.63,60.64,95.164,71.457,99.616c73.495-25.431,107.214-67.31,118.041-83.599c-16.995-4.274-30.9-15.106-39.134-22.863
		C362.495,277.268,352.904,278.687,344.602,278.775z"/>
</g>
<polygon style="fill:#FFAA2A;" points="176.672,372.623 168.642,380.214 182.264,404.145 192.891,401.117 "/>
<path style="fill:#808080;" d="M394.472,330.221c-8.47,8.818-19.471,18.644-33.478,28.418l22.048,1.781l17.883-28.116
	L394.472,330.221z"/>
<path style="fill:#754C24;" d="M193.541,378.871l2.537,4.457l38.825-22.594c-1.149-1.266-2.295-2.58-3.436-3.944L193.541,378.871z"
	/>
<path d="M306.027,104.137c-1.515,0-3.009,0.613-4.084,1.689c-1.076,1.076-1.701,2.568-1.701,4.095c0,1.515,0.625,3.008,1.701,4.084
	c1.076,1.076,2.568,1.701,4.084,1.701c1.526,0,3.018-0.625,4.095-1.701c1.076-1.076,1.689-2.568,1.689-4.084
	c0-1.527-0.613-3.019-1.689-4.095C309.045,104.752,307.553,104.137,306.027,104.137z"/>
<path d="M469.988,204.341l-66.27,37.557c-1.888-7.866-8.25-12.541-18.136-13.044c-11.127-0.566-19.252-3.222-20.361-3.6
	c-2.017-0.88-25.796-11.507-32.962-26.031c-5.601-11.735-11.198-26.781-13.947-34.445c9.797-5.098,21.424-15.358,16.635-29.364
	c-1.143-3.344-0.428-4.987,0.211-5.931c2.83-4.191,12.378-6.006,16.548-6.228c1.801-0.089,3.457-1.013,4.479-2.499
	c1.023-1.485,1.292-3.362,0.733-5.076c-6.705-20.511-24.452-26.254-35.091-26.625l-2.022-2.278
	c16.331-11.849,33.283-29.644,39.562-54.768c0.552-2.204-0.238-4.525-2.019-5.936s-4.22-1.647-6.241-0.608l-48.214,24.839
	C290.922,38.921,246.469,0,198.346,0c-31.099,0-57.217,16.129-77.634,47.941c-1.431,2.23-1.164,5.148,0.649,7.081
	s4.706,2.387,7.024,1.102c0.197-0.109,19.917-10.904,41.449-10.904c24.475,0,41.106,14.052,49.499,41.771l-45.573,18.515
	c-1.652,0.671-2.902,2.067-3.388,3.783c-0.486,1.716-0.154,3.56,0.9,4.997c0.869,1.185,5.091,6.108,16.577,8.71
	c-7.181,9.394-16.656,26.744-17.692,53.739c-0.088,2.275,1.17,4.391,3.209,5.403c2.043,1.011,4.485,0.732,6.244-0.715
	c2.905-2.389,10.209-7.444,18.244-10.455c-2.898,8.203-4.642,20.227,0.663,34.729c0.847,2.315,3.041,3.798,5.428,3.798
	c0.369,0,0.744-0.036,1.116-0.109c0.273-0.053,4.48-0.885,10.732-2.418c-7.864,17.403-14.615,42.838-12.587,77.336
	c1.572,26.739,10.454,47.521,21.218,63.199l-36.611,21.314l-4.737-8.321c-0.879-1.543-2.418-2.598-4.174-2.86
	c-1.758-0.259-3.536,0.298-4.827,1.518c0,0-16.762,15.871-16.807,15.918l-10.762,6.126c-47.433-10.133-118.875,28.26-118.968,28.313
	c-4.396,2.502-8.896,8.929-5.373,25.343c2.296,10.697,7.526,23.553,14.725,36.199c0.001,0.001,0.002,0.003,0.002,0.003
	C48.887,492.129,66.23,512,79.318,512c2.016,0,3.932-0.472,5.712-1.485c0.094-0.053,0.185-0.109,0.275-0.168
	c3.017-1.947,72.634-47.26,84.812-87.674l10.744-6.117c0.069-0.017,22.286-6.335,22.286-6.335c1.709-0.487,3.098-1.732,3.77-3.376
	c0.671-1.644,0.551-3.506-0.327-5.049l-4.793-8.418l41.549-24.181c0.723,0.661,1.443,1.308,2.154,1.931
	c19.308,16.871,37.905,23.457,38.687,23.729c0.614,0.214,1.257,0.32,1.901,0.32c0.627,0,1.254-0.102,1.856-0.305
	c22.339-7.566,41.188-16.54,57.018-25.925l66.349,5.358c4.114,6.332,12.708,13.561,26.139,13.56c4.773,0,10.16-0.914,16.172-3.106
	c1.583-0.577,2.835-1.816,3.431-3.393l6.024-15.972c0.394-1.046,0.477-2.183,0.238-3.275c-0.413-1.895-1.345-3.392-2.484-4.591
	c3.698-1.12,7.325-2.42,9.599-4.952c8.456-9.416,12.28-19.669,11.361-30.472c-1.203-14.143-10.621-26.294-19.032-32.952
	c-1.812-1.434-4.307-1.652-6.343-0.551c-2.034,1.101-3.216,3.309-3.007,5.613c0.015,0.157,1.203,16.064-7.334,26.18
	c-4.145,4.913-10.098,7.807-17.707,8.614l-25.423-8.21c10.717-12.764,15.314-21.865,15.786-22.826
	c0.834-1.699,0.783-3.698-0.135-5.354c-0.919-1.655-2.588-2.756-4.47-2.948c-7.883-0.804-15.248-3.572-21.74-7.094l91.575-53.669
	c6.772-3.857,9.143-12.503,5.289-19.271C485.397,202.867,476.749,200.494,469.988,204.341z M368.912,238.227
	c4.119,0.919,9.637,1.854,16.082,2.182c7.229,0.368,7.788,3.337,7.752,6.969c0.001,0.134-1.304,12.219-27.931,17.666
	C366.654,258.732,368.569,249.596,368.912,238.227z M343.017,112.872c-5.87,1.334-13.389,4.158-17.426,10.108
	c-1.577,2.324-3.074,5.828-2.762,10.505c-6.944,2.078-16.699,3.564-18.905-0.988c-1.393-2.874-4.852-4.075-7.727-2.681
	c-2.875,1.393-4.075,4.853-2.681,7.727c3.56,7.343,10.63,9.515,17.75,9.515c4.332,0,8.669-0.804,12.252-1.734
	c-2.835,5.711-11.457,9.68-13.808,10.675l-36.369,3.387c-12.358-23.929-0.485-45.248,3.063-50.717
	c2.258-0.824,4.562-1.685,6.917-2.589c1.727-0.578,13.14-4.554,26.756-12.837l4.852,5.464c1.187,1.337,2.919,2.044,4.715,1.931
	C320.357,100.589,335.052,99.774,343.017,112.872z M291.488,55.571l-22.023,9.635l-16.721-22.242l12.085-7.883
	C276.438,42.685,285.78,50.464,291.488,55.571z M258.573,69.971l-28.526,12.481c-2.339-7.448-5.171-13.809-8.359-19.234
	l21.344-13.92L258.573,69.971z M215.016,53.756c-13.459-15.926-30.762-20.103-45.183-20.103c-9.869,0-19.277,1.924-27.053,4.255
	c15.815-17.497,34.438-26.339,55.566-26.339c19.699,0,39.145,7.588,55.541,16.839L215.016,53.756z M228.611,95.705
	c0,0,75.834-33.187,75.867-33.204l38.883-20.032c-17.662,36.997-58.752,50.084-63.798,52.671
	c-5.046,2.587-67.007,20.566-89.876,16.383C189.686,111.522,228.589,95.716,228.611,95.705z M207.914,196.939
	c-4.516-18.169,4.753-29.946,5.162-30.452c1.451-1.749,1.744-4.184,0.75-6.227c-0.994-2.043-3.11-3.31-5.365-3.248
	c-9.413,0.268-18.782,4.409-25.634,8.343c3.715-24.362,15.047-37.019,18.969-40.757c0.744,0.019,1.502,0.028,2.279,0.028
	c13.291,0,31.633-2.657,56.731-10.622c-4.962,12.605-8.582,32.562,4.05,53.963c-1.381,4.973-19.294,18.577-39.506,24.47
	C218.383,194.468,212.071,195.996,207.914,196.939z M79.318,500.441c-1.226,0.236-4.169-1.099-8.18-4.353
	c15.742-9.304,53.736-33.738,71.233-62.221c1.672-2.722,0.82-6.284-1.902-7.955c-2.723-1.673-6.285-0.821-7.957,1.901
	c-17.04,27.74-57.285,52.528-69.955,59.872c-3.925-4.462-8.245-10.194-12.668-17.376l83.095-47.3
	c2.775-1.58,3.745-5.112,2.166-7.888c-1.58-2.775-5.113-3.748-7.888-2.166l-83.091,47.299c-3.917-7.472-6.642-14.113-8.479-19.764
	c12.779-7.142,54.644-29.094,87.202-29.583c3.194-0.049,5.745-2.677,5.696-5.871c-0.049-3.195-2.684-5.791-5.87-5.696
	c-33.442,0.503-73.867,20.713-89.888,29.491c-0.768-5.154-0.414-8.367,0.407-9.242c4.857-2.375,74.552-35.969,110.219-27.233
	l15.511,27.249C148.304,454.591,84.173,497.255,79.318,500.441z M167.348,410.94l-12.166-21.37l4.133-2.353l12.166,21.371
	L167.348,410.94z M182.264,404.145l-13.621-23.932l8.029-7.591l6.387,11.221c0.003,0.007,0.006,0.014,0.009,0.021l9.822,17.254
	L182.264,404.145z M196.078,383.327l-2.537-4.457l37.926-22.08c1.139,1.364,2.287,2.678,3.436,3.944L196.078,383.327z
	 M360.994,358.639c14.007-9.775,25.008-19.6,33.478-28.418l6.452,2.083l-17.883,28.116L360.994,358.639z M431.882,340.214
	c9.602-1.465,17.341-5.606,23.036-12.355c5.397-6.395,7.965-14.048,9.157-20.54c3.193,4.559,5.701,10.011,6.19,15.77
	c0.635,7.463-2.178,14.754-8.361,21.674c-0.89,0.659-4.027,1.585-5.915,2.141c-4.156,1.226-8.081,2.384-10.394,5.097
	c-1.415,1.659-1.993,3.773-1.589,5.804c0.704,3.535,3.754,5.09,5.981,6.226c0.297,0.152,0.671,0.342,1.039,0.541l-3.828,10.149
	c-15.952,4.856-23.356-2.622-25.961-6.421L431.882,340.214z M412.295,335.977l7.858,2.538l-9.16,24.162l-14.914-1.204
	L412.295,335.977z M404.256,299.641c-10.827,16.289-44.546,58.168-118.041,83.599c-10.819-4.453-67.419-30.986-71.457-99.616
	c-2.285-38.886,7.217-65.146,16.077-80.777c18.179-5.85,40.352-19.388,44.756-30.657c0.187-0.48,0.339-0.96,0.466-1.439
	l31.067-2.893c2.695,7.57,8.607,23.594,14.729,36.416c7.561,15.325,27.448,26.188,35.548,30.108
	c0.027,15.944-3.497,27.477-5.39,32.512c-23.324,1.956-43.968-4.986-61.408-20.659c-13.853-12.448-20.436-26.047-20.529-26.24
	c-1.366-2.884-4.81-4.117-7.695-2.754c-2.889,1.363-4.125,4.81-2.764,7.699c0.297,0.629,7.445,15.563,22.904,29.583
	c12.673,11.494,33.239,24.554,62.083,24.25c8.302-0.088,17.894-1.507,20.521-1.998C373.357,284.535,387.263,295.366,404.256,299.641
	z M478.176,218.894l-96.646,56.64c-1.012-0.766-1.993-1.533-2.921-2.292c13.331-4.711,19.746-11.375,22.835-16.759l74.256-42.082
	c1.23-0.698,2.797-0.268,3.498,0.962C479.899,216.59,479.467,218.16,478.176,218.894z"/>
<g>
</g>
<g>
</g>
<g>
</g>
<g>
</g>
<g>
</g>
<g>
</g>
<g>
</g>
<g>
</g>
<g>
</g>
<g>
</g>
<g>
</g>
<g>
</g>
<g>
</g>
<g>
</g>
<g>
</g>
</svg>
